<?xml version="1.0" encoding="UTF-8"?>
<svg width="18px" height="18px" viewBox="0 0 18 18" version="1.1" xmlns="http://www.w3.org/2000/svg" xmlns:xlink="http://www.w3.org/1999/xlink">
    <!-- Generator: Sketch 41.1 (35376) - http://www.bohemiancoding.com/sketch -->
    <title>Group 2</title>
    <desc>Created with Sketch.</desc>
    <defs>
        <rect id="path-1" x="0" y="0.541473651" width="18" height="18"></rect>
    </defs>
    <g id="我的" stroke="none" stroke-width="1" fill="none" fill-rule="evenodd">
        <g id="e1.0推广费查询-copy" transform="translate(-739.000000, -116.000000)">
            <g id="Group-2" transform="translate(739.000000, 115.000000)">
                <path d="M14.3533909,18.0829473 L11.0611766,18.0829473 C10.9312517,18.0829473 10.8260185,17.977714 10.8260185,17.8477891 L10.8260185,17.1322028 C10.2725737,17.2488413 9.70219759,17.3085715 9.12982262,17.3085715 C8.35321278,17.3085715 7.59083001,17.2011042 6.85913538,16.9893443 L6.85913538,17.8477891 C6.85913538,17.977714 6.75354936,18.0829473 6.62397721,18.0829473 L3.61242418,18.0829473 C3.48238171,18.0829473 3.37726601,17.977714 3.37726601,17.8477891 L3.37726601,14.7874408 C2.97667408,14.3120686 2.65932813,13.7884889 2.43663335,13.2332805 L1.09823066,13.2332805 C1.08400359,13.2332805 1.07024683,13.2318695 1.0563725,13.2295179 C1.04590796,13.2304586 1.03485553,13.2313992 1.02427341,13.2318695 C0.490111642,13.2612643 0.0417826012,12.6407995 0.00274634581,11.8282104 C-0.0151256747,11.4626571 0.0547163002,11.1113308 0.198045202,10.8384297 C0.327499771,10.592807 0.506690293,10.4292545 0.712453687,10.3639981 C0.74408246,10.3470667 0.779473764,10.3378956 0.816158438,10.3378956 L0.833677721,10.3378956 C0.850609109,10.335544 0.86718776,10.334133 0.884236727,10.33331 L0.884589464,10.3387186 L0.884236727,10.33331 C0.923625719,10.3314287 0.962779554,10.3328397 1.00087518,10.3378956 L2.1435087,10.3378956 C2.35397526,9.08168065 2.7893706,8.25121959 3.65004948,7.45944205 L3.29272665,5.93549956 C3.27156242,5.8459043 3.30507245,5.75231135 3.37808906,5.69575581 C3.45122325,5.63931785 3.55034242,5.63096974 3.63170715,5.67423884 L4.96082109,6.37924302 C6.12650012,5.63096974 7.52827794,5.25212994 9.12982262,5.25212994 C12.8152214,5.25212994 15.8511133,7.66708671 16.1736327,10.7378996 C16.3646987,10.6593568 16.6415975,10.5133236 16.9277849,10.2570012 C17.4371375,9.79950095 17.5321414,9.27368729 17.5330821,9.26863139 C17.5547166,9.14047019 17.6759406,9.05463746 17.8041018,9.07662475 C17.932263,9.0982593 18.0185661,9.21948333 17.9965788,9.34764453 C17.9915229,9.37562836 17.8720626,10.041126 17.2414859,10.6070341 C16.8280779,10.9776434 16.4290145,11.1530713 16.2020868,11.2302032 L16.2020868,11.2802919 C16.2020868,12.6784248 15.6298295,14.0356401 14.5885491,15.1121942 L14.5885491,17.8482595 C14.5885491,17.977714 14.4834334,18.0829473 14.3533909,18.0829473 L14.3533909,18.0829473 Z M12.5677174,17.612631 L14.1182328,17.612631 L14.1182328,15.0162497 C14.1182328,14.9536976 14.143042,14.894085 14.1871341,14.8499929 C15.1833817,13.8509234 15.7317705,12.5833033 15.7317705,11.2802919 C15.7317705,8.21547555 12.7701886,5.72244627 9.12982262,5.72244627 C7.57378104,5.72244627 6.22303254,6.09858175 5.11520243,6.8402706 L4.06428059,7.7194094 C3.17009167,8.50895294 2.76679541,9.29155931 2.57808099,10.6060935 C2.56103202,10.7217913 2.46226559,10.8082119 2.34515683,10.8082119 L1.64109328,10.8082119 C1.7921824,11.0534819 1.8900082,11.3771771 1.90752748,11.7368515 C1.92681045,12.1322699 1.84462267,12.4941784 1.69165229,12.7629641 L3.58020751,12.7629641 L3.59220057,12.7629641 C3.60783859,12.7642575 4.03077055,12.7757803 4.32977416,12.4396217 C4.37257294,12.3909439 4.43359649,12.3628425 4.49838256,12.3606085 C4.56316864,12.356846 4.62607344,12.3835364 4.67145897,12.4295099 L4.9135543,12.6710173 C5.00538356,12.7629641 5.00538356,12.912172 4.9135543,13.0035309 C4.82125472,13.0954778 4.6723996,13.0954778 4.58104066,13.0035309 L4.49979351,12.9227541 C4.09967189,13.2359848 3.64452327,13.2355145 3.57656256,13.2332805 L2.94727931,13.2332805 C3.32259174,14.0727951 3.93847097,14.827888 4.74412284,15.4318917 C4.8033827,15.4764542 4.83818611,15.5458259 4.83818611,15.6201358 L4.83818611,17.6131013 L6.38881905,17.6131013 L6.38881905,16.670117 C6.38881905,16.5943961 6.42515098,16.5236135 6.48664484,16.4795214 C6.54778597,16.4349589 6.62668153,16.4229658 6.69840477,16.446952 C7.47548493,16.7069193 8.2934826,16.8382551 9.12982262,16.8382551 C10.2115502,16.8382551 11.2857527,16.6117978 12.2360268,16.1841627 C12.3086907,16.151123 12.3931125,16.1575898 12.4607204,16.2012117 C12.5272702,16.2443632 12.5681877,16.3187908 12.5681877,16.3986269 L12.5681877,17.612631 L12.5677174,17.612631 Z M11.2963348,17.612631 L12.0974011,17.612631 L12.0974011,16.7527751 C11.8369634,16.8551865 11.5692358,16.9438412 11.2963348,17.018739 L11.2963348,17.612631 Z M3.84758234,17.612631 L4.36786978,17.612631 L4.36786978,15.7364216 C4.18468157,15.5940333 4.01101726,15.4442375 3.84758234,15.2880925 L3.84758234,17.612631 Z M0.50574966,12.074421 C0.590641758,12.491474 0.808868535,12.7707244 1.00134549,12.7620235 C1.01181003,12.7615532 1.02239215,12.7601422 1.03297427,12.7579082 C1.03579616,12.7569676 1.03803017,12.7564973 1.04085206,12.7555567 C1.04673102,12.7541457 1.05319787,12.752382 1.05966472,12.7500304 C1.21757343,12.6940628 1.36783949,12.4455006 1.41922155,12.1028752 C1.24979009,12.095115 1.11386867,11.9541376 1.11386867,11.7823546 C1.11386867,11.6183318 1.23779703,11.4828807 1.39676395,11.464068 C1.36043201,11.2978112 1.30070184,11.1466045 1.22309964,11.0286727 C1.14502713,10.910153 1.05590219,10.8338441 0.970539773,10.8104459 C0.962309237,10.8085646 0.954431439,10.8068009 0.946200903,10.80539 C0.943379005,10.8049197 0.940674686,10.8044494 0.937500051,10.803979 C0.92868162,10.803156 0.919510451,10.803156 0.911279916,10.8026857 C0.905283382,10.803979 0.899286849,10.8049197 0.893407895,10.8058603 L0.891056313,10.8063306 C0.884236727,10.8072713 0.877769877,10.8077416 0.870832711,10.8090349 C0.86718776,10.8099756 0.863542808,10.8104459 0.859780277,10.8113865 C0.771595966,10.8376067 0.684352286,10.9248503 0.614157574,11.0580674 C0.551252765,11.1764696 0.507983663,11.3229731 0.485996374,11.4824104 C0.607220408,11.5283838 0.693523455,11.6454925 0.693523455,11.7823546 C0.693523455,11.9118092 0.616391577,12.023862 0.50574966,12.074421 L0.50574966,12.074421 Z M1.4256884,11.6334995 C1.34761589,11.6380851 1.28565171,11.7033415 1.28565171,11.7823546 C1.28565171,11.8650127 1.35267179,11.9320328 1.43485957,11.9320328 L1.43627052,11.9320328 C1.43897484,11.8760651 1.43897484,11.818569 1.43627052,11.7593091 C1.43391894,11.7170982 1.43027399,11.6748873 1.4256884,11.6334995 L1.4256884,11.6334995 Z M0.470953914,11.6703017 C0.469753914,11.7152169 0.470353914,11.7602497 0.473353914,11.8057528 C0.475003914,11.8332663 0.477403914,11.8608974 0.480253914,11.8879406 C0.514903914,11.8608974 0.536053914,11.8236249 0.536053914,11.7823546 C0.536053914,11.7377921 0.510853914,11.6978152 0.470953914,11.6703017 L0.470953914,11.6703017 Z M3.868629,6.33232897 L4.05287542,7.11587597 L4.55482052,6.69611865 L3.868629,6.33232897 Z M4.74729748,10.3304881 C4.34223754,10.3304881 4.01289853,10.0011491 4.01289853,9.59608914 C4.01289853,9.19149951 4.34223754,8.86169019 4.74729748,8.86169019 C5.1518871,8.86169019 5.48122611,9.19149951 5.48122611,9.59608914 C5.48122611,10.0011491 5.1518871,10.3304881 4.74729748,10.3304881 L4.74729748,10.3304881 Z M4.74729748,9.33200652 C4.60173457,9.33200652 4.48321486,9.45052623 4.48321486,9.59608914 C4.48321486,9.74165204 4.60173457,9.86017175 4.74729748,9.86017175 C4.89239007,9.86017175 5.01090978,9.74165204 5.01090978,9.59608914 C5.01090978,9.45052623 4.89239007,9.33200652 4.74729748,9.33200652 L4.74729748,9.33200652 Z M7.55449807,9.36869119 L7.55449807,9.36869119 C7.42457319,9.36869119 7.31933991,9.26357549 7.31933991,9.13353303 C7.31933991,9.12483217 7.31745864,8.25357117 7.1456756,7.49706736 C7.06395814,7.13751052 6.98953058,6.91928375 6.93955947,6.79664876 C6.74426061,6.84908903 6.40951297,6.9684318 6.1563652,7.2174643 C5.89416385,7.47555038 5.73978251,7.80853435 5.73848914,7.8121793 C5.68428519,7.92975838 5.54507155,7.98208107 5.42702215,7.92834743 C5.30897276,7.87461379 5.25665006,7.73551774 5.3103837,7.61746834 C5.31779119,7.60041937 5.50003876,7.20311965 5.82667346,6.88212876 C6.31897707,6.39805567 7.00834323,6.29928924 7.037738,6.29564429 C7.12274768,6.28412154 7.20728704,6.31951285 7.25819878,6.3888845 C7.2867705,6.42698013 7.43644867,6.65520113 7.60411644,7.39289229 C7.78777497,8.20218911 7.78965624,9.09637804 7.78965624,9.13400334 C7.78965624,9.26357549 7.68442296,9.36869119 7.55449807,9.36869119 L7.55449807,9.36869119 Z M10.6676394,6.76360904 C10.6363634,6.76360904 10.604617,6.75761251 10.5739289,6.74432607 C10.5684027,6.74209207 10.0268334,6.5119898 9.2777371,6.5119898 C8.5194696,6.5119898 7.87184401,6.74667765 7.86549474,6.74891165 C7.74368281,6.79394444 7.60870203,6.73150995 7.56366924,6.6098156 C7.51863645,6.48800367 7.58118852,6.35302288 7.70288287,6.3079901 C7.73227764,6.29693766 8.43222592,6.04202621 9.2777371,6.04202621 C10.1301855,6.04202621 10.7360705,6.30199356 10.7617027,6.313046 C10.8806927,6.36501595 10.9348967,6.50317137 10.8830443,6.62263172 C10.8443608,6.71081603 10.7580578,6.76360904 10.6676394,6.76360904 L10.6676394,6.76360904 Z M9.22353315,4.34865227 C8.30041977,4.34865227 7.54897185,3.59767467 7.54897185,2.67456129 C7.54897185,1.75133034 8.30041977,1 9.22353315,1 C10.1467641,1 10.898212,1.75086002 10.898212,2.67456129 C10.898212,3.59767467 10.1467641,4.34865227 9.22353315,4.34865227 L9.22353315,4.34865227 Z M9.22353315,1.47031633 C8.55944649,1.47031633 8.01928818,2.01035706 8.01928818,2.67456129 C8.01928818,3.33817763 8.5599168,3.87833594 9.22353315,3.87833594 C9.88773738,3.87833594 10.4278957,3.33817763 10.4278957,2.67456129 C10.4278957,2.01035706 9.88773738,1.47031633 9.22353315,1.47031633 L9.22353315,1.47031633 Z" id="Fill-1" fill="#F6A623"></path>
                <mask id="mask-2" fill="white">
                    <use xlink:href="#path-1"></use>
                </mask>
                <g id="Mask"></g>
            </g>
        </g>
    </g>
</svg>