<?xml version="1.0" encoding="UTF-8"?>
<svg width="375px" height="167px" viewBox="0 0 375 167" version="1.1" xmlns="http://www.w3.org/2000/svg" xmlns:xlink="http://www.w3.org/1999/xlink">
    <!-- Generator: Sketch 41.1 (35376) - http://www.bohemiancoding.com/sketch -->
    <title>Group 11</title>
    <desc>Created with Sketch.</desc>
    <defs>
        <radialGradient cx="107.241536%" cy="-27.1661866%" fx="107.241536%" fy="-27.1661866%" r="221.650551%" id="radialGradient-1">
            <stop stop-color="#20CD9C" offset="0%"></stop>
            <stop stop-color="#19AB6A" offset="100%"></stop>
        </radialGradient>
    </defs>
    <g id="我的" stroke="none" stroke-width="1" fill="none" fill-rule="evenodd">
        <g id="e1.0推广费查询-copy" transform="translate(-875.000000, -417.000000)">
            <g id="Group-11" transform="translate(875.000000, 417.000000)">
                <rect id="Mask" fill="url(#radialGradient-1)" x="0" y="0" width="375" height="167"></rect>
                <path d="M357.412602,167.000008 C361.617386,159.09679 364,150.07664 364,140.5 C364,109.295912 338.704088,84 307.5,84 C276.295912,84 251,109.295912 251,140.5 C251,150.07664 253.382614,159.09679 257.587398,167.000008 L357.412607,167 Z" id="Combined-Shape" fill="#FFFFFF" opacity="0.100000001"></path>
                <circle id="Oval-4-Copy-2" fill="#FFFFFF" opacity="0.0473278986" cx="218.5" cy="81.5" r="28.5"></circle>
                <circle id="Oval-4-Copy-3" fill="#FFFFFF" opacity="0.0700000003" cx="350" cy="59" r="14"></circle>
                <circle id="Oval-4-Copy-4" fill="#FFFFFF" opacity="0.0500000007" cx="68" cy="79" r="35"></circle>
                <path d="M72.731059,167 C83.3965992,156.403148 90,141.722727 90,125.5 C90,93.1913421 63.8086579,67 31.5,67 C19.9022193,67 9.09270467,70.3749684 -7.23865412e-12,76.1963612 L3.41060513e-13,167 L72.731059,167 Z" id="Combined-Shape" fill="#FFFFFF" opacity="0.0800000057"></path>
            </g>
        </g>
    </g>
</svg>